<svg width="128" height="128" viewBox="0 0 128 128" fill="none" xmlns="http://www.w3.org/2000/svg">
<g clip-path="url(#clip0_319_2)">
<g clip-path="url(#clip1_319_2)">
<path d="M89.0107 0H38.9892C17.4561 0 0 17.4561 0 38.9892V89.0107C0 110.544 17.4561 128 38.9892 128H89.0107C110.544 128 128 110.544 128 89.0107V38.9892C128 17.4561 110.544 0 89.0107 0Z" fill="url(#paint0_linear_319_2)"/>
<path d="M64 93.8409C90.0085 93.8409 111.092 78.0659 111.092 58.6064C111.092 39.147 90.0085 23.372 64 23.372C37.9915 23.372 16.9075 39.147 16.9075 58.6064C16.9075 78.0659 37.9915 93.8409 64 93.8409Z" fill="white"/>
<path d="M43.3118 52.0602L64.228 60.6495L84.6882 52.0602V71.4925L64.228 80.086L43.3118 71.4925V52.0602Z" fill="url(#paint1_linear_319_2)"/>
<path d="M90.8344 68.5892L92.5075 67.7032V51.2301H90.8344V68.5892Z" fill="#231F20"/>
<path d="M99.4581 51.8538L64.3914 37.1312L28.5419 51.8538L64.3914 67.785L99.4581 51.8538Z" fill="url(#paint2_linear_319_2)"/>
<path d="M90.8344 68.5892L92.5075 67.7032L95.0323 71.5183V77.1312L88.4774 79.5656V73.8839L90.8344 68.5892Z" fill="#FBD106"/>
<path d="M86.3527 86.0731L96.3269 104.624L65.0194 86.5376L86.3527 86.0731Z" fill="white"/>
<path d="M42.4946 81.015C34.3226 79.914 27.0581 83.9656 26.2323 90.0688C25.8022 93.1613 27.1398 96.1849 29.6043 98.5591L26.1634 104.245L32.3441 100.654C34.5336 101.946 36.9624 102.782 39.4839 103.11C47.6559 104.211 54.9161 100.159 55.7419 94.0774C56.5677 87.9957 50.6323 82.1204 42.4946 81.015Z" fill="#FBD106"/>
<path d="M39.3763 89.5183H36.7054V89.2129C36.6836 88.6801 36.7804 88.1491 36.9886 87.6582C37.1969 87.1674 37.5115 86.7288 37.9097 86.3742C38.7995 85.6325 39.9354 85.2518 41.0925 85.3075C41.6483 85.2774 42.2044 85.359 42.7282 85.5474C43.2519 85.7357 43.7326 86.0271 44.1419 86.4043C44.5258 86.8019 44.8233 87.2747 45.0158 87.7928C45.2082 88.3109 45.2914 88.8632 45.2602 89.4151C45.2978 90.28 45.0213 91.1294 44.4817 91.8065C44.0227 92.3246 43.4261 92.7019 42.7613 92.8946C42.5961 92.9479 42.4523 93.0526 42.3509 93.1934C42.2496 93.3343 42.1959 93.5039 42.1978 93.6774V94.1892C42.1979 94.3605 42.1638 94.5301 42.0976 94.688C42.0314 94.846 41.9345 94.9892 41.8124 95.1093C41.6902 95.2294 41.5455 95.324 41.3864 95.3876C41.2274 95.4511 41.0573 95.4824 40.886 95.4796C40.5438 95.4796 40.2156 95.3436 39.9736 95.1016C39.7316 94.8597 39.5957 94.5315 39.5957 94.1892V93.0839C39.5957 92.8655 39.6388 92.6492 39.7225 92.4475C39.8062 92.2458 39.9289 92.0626 40.0835 91.9084C40.2381 91.7542 40.4216 91.632 40.6236 91.5488C40.8255 91.4656 41.0418 91.4231 41.2602 91.4237C41.5879 91.3854 41.8874 91.2201 42.0946 90.9634C42.3763 90.4634 42.5106 89.8937 42.4817 89.3204C42.5139 88.8256 42.3742 88.3348 42.086 87.9312C41.9455 87.7665 41.7686 87.6369 41.5692 87.5526C41.3699 87.4682 41.1537 87.4314 40.9376 87.4452C40.7237 87.4312 40.5094 87.4648 40.3101 87.5437C40.1108 87.6225 39.9314 87.7446 39.7849 87.9011C39.4928 88.2848 39.3506 88.7619 39.3849 89.243L39.3763 89.5183ZM39.3763 89.5742C39.3763 89.8389 39.2978 90.0977 39.1506 90.3178C39.0034 90.5378 38.7943 90.7093 38.5496 90.8104C38.3049 90.9115 38.0358 90.9377 37.7762 90.8858C37.5166 90.8338 37.2782 90.706 37.0913 90.5185C36.9044 90.331 36.7774 90.0923 36.7263 89.8325C36.6751 89.5728 36.7022 89.3037 36.8041 89.0593C36.906 88.815 37.0782 88.6064 37.2987 88.4599C37.5192 88.3134 37.7783 88.2357 38.043 88.2365C38.2185 88.2365 38.3922 88.2712 38.5543 88.3384C38.7163 88.4057 38.8635 88.5043 38.9873 88.6286C39.1112 88.7529 39.2093 88.9004 39.2761 89.0626C39.3428 89.2249 39.3769 89.3987 39.3763 89.5742ZM39.5914 97.514C39.5878 97.3437 39.6201 97.1745 39.686 97.0174C39.752 96.8604 39.8501 96.7189 39.9742 96.6021C40.2207 96.3625 40.5509 96.2285 40.8946 96.2285C41.2384 96.2285 41.5686 96.3625 41.8151 96.6021C41.9377 96.7197 42.0347 96.8615 42.0998 97.0184C42.1649 97.1753 42.1969 97.3441 42.1936 97.514C42.1939 97.8558 42.0612 98.1843 41.8237 98.4301C41.7034 98.5557 41.5583 98.655 41.3976 98.7216C41.237 98.7883 41.0642 98.8208 40.8903 98.8172C40.5502 98.8106 40.2258 98.6725 39.9852 98.432C39.7447 98.1914 39.6066 97.867 39.6 97.5269L39.5914 97.514Z" fill="white"/>
</g>
</g>
<defs>
<linearGradient id="paint0_linear_319_2" x1="10.3742" y1="115.501" x2="117.626" y2="12.4989" gradientUnits="userSpaceOnUse">
<stop offset="0.38" stop-color="#582DB4"/>
<stop offset="1" stop-color="#6645CE"/>
</linearGradient>
<linearGradient id="paint1_linear_319_2" x1="79.2043" y1="76.9806" x2="48.7957" y2="46.5763" gradientUnits="userSpaceOnUse">
<stop stop-color="#00182A"/>
<stop offset="1" stop-color="#1C75BC"/>
</linearGradient>
<linearGradient id="paint2_linear_319_2" x1="64" y1="67.785" x2="64" y2="37.4624" gradientUnits="userSpaceOnUse">
<stop stop-color="#00182A"/>
<stop offset="1" stop-color="#1C75BC"/>
</linearGradient>
<clipPath id="clip0_319_2">
<rect width="128" height="128" fill="white"/>
</clipPath>
<clipPath id="clip1_319_2">
<rect width="128" height="128" fill="white"/>
</clipPath>
</defs>
</svg>
