<svg width="512" height="128" viewBox="0 0 512 128" fill="none" xmlns="http://www.w3.org/2000/svg">
<g clip-path="url(#clip0_319_13)">
<path d="M89.0107 0H38.9892C17.4561 0 0 17.4561 0 38.9892V89.0107C0 110.544 17.4561 128 38.9892 128H89.0107C110.544 128 128 110.544 128 89.0107V38.9892C128 17.4561 110.544 0 89.0107 0Z" fill="url(#paint0_linear_319_13)"/>
<path d="M64 93.8409C90.0085 93.8409 111.092 78.0659 111.092 58.6064C111.092 39.147 90.0085 23.372 64 23.372C37.9916 23.372 16.9075 39.147 16.9075 58.6064C16.9075 78.0659 37.9916 93.8409 64 93.8409Z" fill="white"/>
<path d="M43.3118 52.0602L64.228 60.6495L84.6882 52.0602V71.4925L64.228 80.086L43.3118 71.4925V52.0602Z" fill="url(#paint1_linear_319_13)"/>
<path d="M90.8344 68.5892L92.5075 67.7032V51.2301H90.8344V68.5892Z" fill="#231F20"/>
<path d="M99.4581 51.8538L64.3914 37.1312L28.5419 51.8538L64.3914 67.7849L99.4581 51.8538Z" fill="url(#paint2_linear_319_13)"/>
<path d="M90.8344 68.5892L92.5075 67.7032L95.0323 71.5183V77.1312L88.4774 79.5656V73.8839L90.8344 68.5892Z" fill="#FBD106"/>
<path d="M86.3527 86.0731L96.3269 104.624L65.0194 86.5376L86.3527 86.0731Z" fill="white"/>
<path d="M42.4946 81.015C34.3226 79.914 27.0581 83.9656 26.2323 90.0688C25.8021 93.1613 27.1398 96.1849 29.6043 98.5591L26.1634 104.245L32.3441 100.654C34.5336 101.946 36.9624 102.782 39.4839 103.11C47.6559 104.211 54.9161 100.159 55.7419 94.0774C56.5677 87.9957 50.6323 82.1204 42.4946 81.015Z" fill="#FBD106"/>
<path d="M39.3763 89.5183H36.7054V89.2129C36.6836 88.6801 36.7804 88.1491 36.9886 87.6583C37.1969 87.1674 37.5115 86.7288 37.9097 86.3742C38.7995 85.6325 39.9354 85.2518 41.0925 85.3075C41.6483 85.2774 42.2044 85.359 42.7282 85.5474C43.2519 85.7358 43.7326 86.0271 44.1419 86.4043C44.5258 86.8019 44.8233 87.2747 45.0158 87.7928C45.2082 88.3109 45.2915 88.8632 45.2602 89.4151C45.2978 90.28 45.0213 91.1294 44.4817 91.8065C44.0227 92.3246 43.4261 92.7019 42.7613 92.8946C42.5961 92.9479 42.4523 93.0526 42.3509 93.1934C42.2496 93.3343 42.1959 93.5039 42.1979 93.6774V94.1892C42.1979 94.3605 42.1638 94.5301 42.0976 94.6881C42.0314 94.846 41.9345 94.9892 41.8124 95.1093C41.6902 95.2294 41.5455 95.324 41.3864 95.3876C41.2274 95.4512 41.0573 95.4824 40.886 95.4796C40.5438 95.4796 40.2156 95.3436 39.9736 95.1017C39.7317 94.8597 39.5957 94.5315 39.5957 94.1892V93.0839C39.5957 92.8655 39.6388 92.6492 39.7225 92.4475C39.8062 92.2458 39.9289 92.0626 40.0835 91.9084C40.2381 91.7542 40.4216 91.632 40.6236 91.5488C40.8255 91.4656 41.0418 91.4231 41.2602 91.4237C41.5879 91.3854 41.8874 91.2201 42.0946 90.9634C42.3764 90.4634 42.5106 89.8937 42.4817 89.3204C42.5139 88.8256 42.3742 88.3348 42.086 87.9312C41.9455 87.7666 41.7686 87.6369 41.5692 87.5526C41.3699 87.4682 41.1537 87.4314 40.9376 87.4452C40.7238 87.4312 40.5094 87.4649 40.3101 87.5437C40.1108 87.6225 39.9314 87.7446 39.785 87.9011C39.4928 88.2849 39.3506 88.7619 39.385 89.243L39.3763 89.5183ZM39.3763 89.5742C39.3763 89.8389 39.2978 90.0977 39.1506 90.3178C39.0034 90.5378 38.7943 90.7093 38.5496 90.8104C38.3049 90.9115 38.0358 90.9378 37.7762 90.8858C37.5166 90.8338 37.2782 90.706 37.0913 90.5185C36.9044 90.331 36.7774 90.0923 36.7263 89.8325C36.6751 89.5728 36.7022 89.3037 36.8041 89.0593C36.906 88.815 37.0782 88.6064 37.2987 88.4599C37.5192 88.3134 37.7783 88.2357 38.043 88.2365C38.2185 88.2365 38.3922 88.2712 38.5543 88.3385C38.7163 88.4057 38.8635 88.5043 38.9874 88.6286C39.1112 88.7529 39.2093 88.9004 39.2761 89.0626C39.3428 89.2249 39.3769 89.3987 39.3763 89.5742ZM39.5914 97.514C39.5879 97.3437 39.6201 97.1745 39.686 97.0174C39.752 96.8604 39.8501 96.7189 39.9742 96.6021C40.2207 96.3625 40.5509 96.2285 40.8946 96.2285C41.2384 96.2285 41.5686 96.3625 41.8151 96.6021C41.9377 96.7197 42.0347 96.8615 42.0998 97.0184C42.1649 97.1754 42.1969 97.3441 42.1936 97.514C42.1939 97.8558 42.0612 98.1843 41.8237 98.4301C41.7034 98.5557 41.5583 98.655 41.3976 98.7217C41.237 98.7883 41.0642 98.8208 40.8903 98.8172C40.5502 98.8106 40.2258 98.6725 39.9852 98.432C39.7447 98.1914 39.6066 97.867 39.6 97.5269L39.5914 97.514Z" fill="white"/>
</g>
<path d="M177.653 38.5391L182.864 58.25C183.091 59.043 183.327 59.9681 183.572 61.0254C183.648 61.403 183.752 61.9505 183.884 62.668C184.016 63.3665 184.12 63.9235 184.195 64.3389C184.46 63.1117 184.696 61.8939 184.903 60.6855C185.017 60.1003 185.215 59.2884 185.498 58.25L190.369 38.5391H201.782L190.058 80H179.579L174.453 62.2998C174.094 60.9782 173.792 59.7604 173.547 58.6465C173.528 58.5332 173.471 58.3066 173.377 57.9668C173.283 57.627 173.179 57.221 173.065 56.749C173.028 56.8812 172.896 57.4382 172.669 58.4199C172.329 59.9303 171.999 61.2236 171.678 62.2998L166.637 80H156.13L144.434 38.5391H155.847L160.604 58.3633C160.756 59.0241 160.982 60.0531 161.284 61.4502C161.586 62.9229 161.785 63.9613 161.879 64.5654C162.124 63.3949 162.313 62.5641 162.445 62.0732C162.785 60.5251 163.078 59.2884 163.323 58.3633L168.534 38.5391H177.653ZM205.011 80V36.1035H214.923V51.5098C214.923 52.2461 214.885 53.1995 214.81 54.3701C214.753 55.3896 214.677 56.1637 214.583 56.6924C215.848 54.5589 217.34 52.9919 219.058 51.9912C220.795 50.9906 222.843 50.4902 225.203 50.4902C227.072 50.4902 228.734 50.7734 230.188 51.3398C231.622 51.9818 232.784 52.8503 233.671 53.9453C234.483 55.0404 235.021 56.2015 235.285 57.4287C235.606 58.9958 235.767 61.0632 235.767 63.6309V80H225.656V64.6787C225.656 62.3564 225.288 60.695 224.552 59.6943C223.815 58.6559 222.617 58.1367 220.955 58.1367C218.878 58.1367 217.349 58.9108 216.367 60.459C215.404 62.0072 214.923 64.5182 214.923 67.9922V80H205.011ZM264.71 65.6699C264.71 63.4043 264.115 61.6484 262.926 60.4023C261.717 59.0807 260.094 58.4199 258.055 58.4199C256.016 58.4199 254.411 59.0618 253.24 60.3457C252.032 61.6673 251.428 63.4421 251.428 65.6699C251.428 67.9167 252.032 69.682 253.24 70.9658C254.392 72.2308 255.997 72.8633 258.055 72.8633C260.094 72.8633 261.708 72.2308 262.897 70.9658C264.106 69.7008 264.71 67.9355 264.71 65.6699ZM273.574 51.3965V80H264.313V75.3555C262.973 77.3379 261.472 78.7917 259.811 79.7168C258.168 80.6419 256.242 81.1045 254.033 81.1045C250.201 81.1045 247.151 79.7074 244.886 76.9131C243.772 75.5348 242.922 73.9111 242.337 72.042C241.752 70.1729 241.459 68.0677 241.459 65.7266C241.459 61.0443 242.658 57.3343 245.056 54.5967C247.453 51.859 250.663 50.4902 254.685 50.4902C256.837 50.4902 258.687 50.9528 260.235 51.8779C261.802 52.7653 263.143 54.1719 264.257 56.0977V51.3965H273.574ZM282.807 80L282.75 58.5332H278.474V51.3965H282.75V42.8721H292.747V51.3965H296.967V58.5332H292.747V80H282.807ZM304.245 66.6045C305.982 68.5303 307.644 69.9557 309.229 70.8809C310.891 71.8249 312.515 72.2969 314.101 72.2969C315.592 72.2969 316.829 71.891 317.811 71.0791C318.792 70.2673 319.283 69.2383 319.283 67.9922C319.283 66.6328 318.877 65.5661 318.065 64.792C317.197 64.0557 315.281 63.291 312.316 62.498C308.276 61.403 305.416 59.987 303.735 58.25C302.036 56.4753 301.187 54.0586 301.187 51C301.187 47.0352 302.518 43.8066 305.18 41.3145C307.804 38.8034 311.24 37.5479 315.488 37.5479C317.886 37.5479 320.057 37.8594 322.002 38.4824C324.041 39.1055 325.976 40.0306 327.808 41.2578L324.268 49.3857C323.021 48.3096 321.7 47.4788 320.303 46.8936C318.943 46.346 317.612 46.0723 316.31 46.0723C314.988 46.0723 313.883 46.4027 312.996 47.0635C312.146 47.6865 311.722 48.5173 311.722 49.5557C311.722 50.5563 312.09 51.387 312.826 52.0479C313.6 52.6709 315.054 53.2656 317.188 53.832C317.263 53.8509 317.329 53.8698 317.386 53.8887C317.442 53.8887 317.527 53.9076 317.641 53.9453C322.247 55.1725 325.287 56.5508 326.76 58.0801C327.723 59.043 328.478 60.2607 329.025 61.7334C329.516 63.1305 329.762 64.7165 329.762 66.4912C329.762 70.8714 328.317 74.4115 325.429 77.1113C322.521 79.7734 318.67 81.1045 313.874 81.1045C310.929 81.1045 308.295 80.623 305.973 79.6602C303.669 78.6973 301.394 77.1491 299.147 75.0156L304.245 66.6045ZM355.93 60.7988C354.948 59.9303 354.004 59.2979 353.098 58.9014C352.286 58.5049 351.332 58.3066 350.237 58.3066C348.217 58.3066 346.631 58.9674 345.479 60.2891C344.29 61.5918 343.695 63.3854 343.695 65.6699C343.695 67.86 344.309 69.597 345.536 70.8809C346.726 72.2025 348.378 72.8633 350.492 72.8633C351.493 72.8633 352.456 72.6556 353.381 72.2402C354.363 71.7682 355.212 71.1452 355.93 70.3711V79.1221C354.721 79.764 353.504 80.2738 352.276 80.6514C350.974 80.9535 349.737 81.1045 348.566 81.1045C344.148 81.1045 340.59 79.6885 337.89 76.8564C336.965 75.9124 336.2 74.874 335.596 73.7412C335.01 72.6084 334.557 71.3812 334.236 70.0596C333.934 68.738 333.783 67.2936 333.783 65.7266C333.783 61.2142 335.161 57.5514 337.918 54.7383C340.693 51.9062 344.281 50.4902 348.68 50.4902C350.058 50.4902 351.37 50.6413 352.616 50.9434C353.825 51.2454 354.929 51.6891 355.93 52.2744V60.7988ZM362.132 80V36.1035H372.044V51.5098C372.044 52.2461 372.006 53.1995 371.931 54.3701C371.874 55.3896 371.799 56.1637 371.704 56.6924C372.969 54.5589 374.461 52.9919 376.179 51.9912C377.916 50.9906 379.964 50.4902 382.324 50.4902C384.193 50.4902 385.855 50.7734 387.309 51.3398C388.743 51.9818 389.905 52.8503 390.792 53.9453C391.604 55.0404 392.142 56.2015 392.406 57.4287C392.727 58.9958 392.888 61.0632 392.888 63.6309V80H382.777V64.6787C382.777 62.3564 382.409 60.695 381.673 59.6943C380.937 58.6559 379.738 58.1367 378.076 58.1367C375.999 58.1367 374.47 58.9108 373.488 60.459C372.525 62.0072 372.044 64.5182 372.044 67.9922V80H362.132ZM420.33 65.7832C420.33 63.6497 419.792 61.9694 418.716 60.7422C417.602 59.515 416.148 58.9014 414.354 58.9014C412.504 58.9014 411.05 59.515 409.993 60.7422C408.917 61.9316 408.379 63.612 408.379 65.7832C408.379 67.8978 408.898 69.5592 409.937 70.7676C411.069 72.0137 412.542 72.6367 414.354 72.6367C416.167 72.6367 417.64 72.0137 418.772 70.7676C419.811 69.5215 420.33 67.86 420.33 65.7832ZM430.355 65.7832C430.355 67.8789 429.95 69.833 429.138 71.6455C428.288 73.5713 427.127 75.2327 425.654 76.6299C423.993 78.1781 422.275 79.3014 420.5 80C418.65 80.7363 416.601 81.1045 414.354 81.1045C412.089 81.1045 410.04 80.7363 408.209 80C406.34 79.2637 404.612 78.1497 403.026 76.6582C401.459 75.1478 400.326 73.4769 399.628 71.6455C398.816 69.8896 398.41 67.9355 398.41 65.7832C398.41 63.6875 398.816 61.7145 399.628 59.8643C400.383 57.9951 401.525 56.3337 403.055 54.8799C404.546 53.445 406.264 52.3405 408.209 51.5664C410.059 50.849 412.108 50.4902 414.354 50.4902C416.582 50.4902 418.631 50.849 420.5 51.5664C422.445 52.3405 424.163 53.445 425.654 54.8799C427.221 56.2959 428.382 57.9574 429.138 59.8643C429.95 61.7145 430.355 63.6875 430.355 65.7832ZM456.467 65.7832C456.467 63.6497 455.929 61.9694 454.853 60.7422C453.739 59.515 452.285 58.9014 450.491 58.9014C448.641 58.9014 447.187 59.515 446.13 60.7422C445.054 61.9316 444.516 63.612 444.516 65.7832C444.516 67.8978 445.035 69.5592 446.073 70.7676C447.206 72.0137 448.679 72.6367 450.491 72.6367C452.304 72.6367 453.776 72.0137 454.909 70.7676C455.948 69.5215 456.467 67.86 456.467 65.7832ZM466.492 65.7832C466.492 67.8789 466.086 69.833 465.274 71.6455C464.425 73.5713 463.264 75.2327 461.791 76.6299C460.13 78.1781 458.411 79.3014 456.637 80C454.786 80.7363 452.738 81.1045 450.491 81.1045C448.226 81.1045 446.177 80.7363 444.346 80C442.477 79.2637 440.749 78.1497 439.163 76.6582C437.596 75.1478 436.463 73.4769 435.765 71.6455C434.953 69.8896 434.547 67.9355 434.547 65.7832C434.547 63.6875 434.953 61.7145 435.765 59.8643C436.52 57.9951 437.662 56.3337 439.191 54.8799C440.683 53.445 442.401 52.3405 444.346 51.5664C446.196 50.849 448.244 50.4902 450.491 50.4902C452.719 50.4902 454.768 50.849 456.637 51.5664C458.581 52.3405 460.299 53.445 461.791 54.8799C463.358 56.2959 464.519 57.9574 465.274 59.8643C466.086 61.7145 466.492 63.6875 466.492 65.7832ZM472.581 80V36.1035H482.691V80H472.581Z" fill="white"/>
<defs>
<linearGradient id="paint0_linear_319_13" x1="10.3742" y1="115.501" x2="117.626" y2="12.4989" gradientUnits="userSpaceOnUse">
<stop offset="0.38" stop-color="#582DB4"/>
<stop offset="1" stop-color="#6645CE"/>
</linearGradient>
<linearGradient id="paint1_linear_319_13" x1="79.2043" y1="76.9806" x2="48.7957" y2="46.5763" gradientUnits="userSpaceOnUse">
<stop stop-color="#00182A"/>
<stop offset="1" stop-color="#1C75BC"/>
</linearGradient>
<linearGradient id="paint2_linear_319_13" x1="64" y1="67.7849" x2="64" y2="37.4624" gradientUnits="userSpaceOnUse">
<stop stop-color="#00182A"/>
<stop offset="1" stop-color="#1C75BC"/>
</linearGradient>
<clipPath id="clip0_319_13">
<rect width="128" height="128" fill="white"/>
</clipPath>
</defs>
</svg>
