<svg width="1024" height="1024" viewBox="0 0 1024 1024" fill="none" xmlns="http://www.w3.org/2000/svg">
<g clip-path="url(#clip0_319_37)">
<g clip-path="url(#clip1_319_37)">
<path d="M712.086 0H311.914C139.649 0 0 139.649 0 311.914V712.086C0 884.351 139.649 1024 311.914 1024H712.086C884.351 1024 1024 884.351 1024 712.086V311.914C1024 139.649 884.351 0 712.086 0Z" fill="url(#paint0_linear_319_37)"/>
<path d="M512 750.727C720.068 750.727 888.74 624.527 888.74 468.852C888.74 313.176 720.068 186.976 512 186.976C303.932 186.976 135.26 313.176 135.26 468.852C135.26 624.527 303.932 750.727 512 750.727Z" fill="white"/>
<path d="M346.495 416.482L513.824 485.196L677.505 416.482V571.94L513.824 640.688L346.495 571.94V416.482Z" fill="url(#paint1_linear_319_37)"/>
<path d="M726.675 548.714L740.06 541.626V409.841H726.675V548.714Z" fill="#231F20"/>
<path d="M795.665 414.83L515.131 297.049L228.335 414.83L515.131 542.28L795.665 414.83Z" fill="url(#paint2_linear_319_37)"/>
<path d="M726.675 548.714L740.06 541.626L760.258 572.146V617.049L707.819 636.525V591.071L726.675 548.714Z" fill="#FBD106"/>
<path d="M690.822 688.585L770.615 836.989L520.155 692.301L690.822 688.585Z" fill="white"/>
<path d="M339.957 648.12C274.581 639.312 216.465 671.725 209.858 720.55C206.417 745.29 217.118 769.479 236.834 788.473L209.308 833.961L258.753 805.23C276.269 815.572 295.699 822.255 315.871 824.877C381.247 833.686 439.329 801.273 445.935 752.619C452.542 703.966 405.058 656.963 339.957 648.12Z" fill="#FBD106"/>
<path d="M315.011 716.146H293.643V713.703C293.469 709.441 294.243 705.193 295.909 701.266C297.575 697.339 300.092 693.831 303.277 690.994C310.396 685.06 319.483 682.014 328.74 682.46C333.186 682.22 337.635 682.872 341.825 684.379C346.015 685.886 349.861 688.217 353.136 691.234C356.207 694.416 358.587 698.197 360.126 702.342C361.666 706.487 362.332 710.906 362.082 715.32C362.382 722.24 360.17 729.035 355.854 734.452C352.181 738.597 347.409 741.615 342.09 743.157C340.769 743.583 339.619 744.421 338.807 745.547C337.996 746.674 337.567 748.031 337.583 749.419V753.514C337.583 754.884 337.31 756.241 336.781 757.504C336.251 758.768 335.476 759.914 334.499 760.875C333.522 761.836 332.364 762.592 331.091 763.101C329.819 763.609 328.458 763.859 327.088 763.837C324.35 763.837 321.725 762.749 319.789 760.813C317.853 758.877 316.766 756.252 316.766 753.514V744.671C316.766 742.924 317.11 741.194 317.78 739.58C318.45 737.967 319.431 736.501 320.668 735.267C321.905 734.033 323.373 733.056 324.988 732.39C326.604 731.725 328.335 731.385 330.082 731.389C332.703 731.083 335.1 729.761 336.757 727.707C339.011 723.707 340.085 719.149 339.854 714.563C340.112 710.605 338.993 706.678 336.688 703.449C335.564 702.132 334.148 701.095 332.554 700.42C330.959 699.746 329.229 699.451 327.501 699.561C325.79 699.45 324.075 699.719 322.481 700.349C320.886 700.98 319.451 701.957 318.28 703.209C315.943 706.279 314.805 710.095 315.08 713.944L315.011 716.146ZM315.011 716.594C315.011 718.711 314.382 720.782 313.205 722.542C312.028 724.303 310.354 725.674 308.397 726.483C306.439 727.292 304.286 727.502 302.209 727.086C300.133 726.671 298.226 725.648 296.731 724.148C295.236 722.648 294.219 720.738 293.81 718.66C293.401 716.582 293.618 714.429 294.433 712.475C295.248 710.52 296.625 708.851 298.39 707.679C300.154 706.507 302.226 705.886 304.344 705.892C305.748 705.892 307.138 706.169 308.434 706.708C309.73 707.246 310.908 708.035 311.899 709.029C312.89 710.023 313.675 711.203 314.209 712.501C314.743 713.799 315.015 715.19 315.011 716.594ZM316.731 780.112C316.703 778.749 316.961 777.396 317.488 776.14C318.016 774.883 318.801 773.751 319.794 772.817C321.765 770.9 324.407 769.828 327.157 769.828C329.907 769.828 332.549 770.9 334.52 772.817C335.502 773.758 336.277 774.892 336.798 776.147C337.319 777.403 337.575 778.753 337.548 780.112C337.551 782.846 336.49 785.475 334.589 787.441C333.627 788.446 332.466 789.24 331.181 789.773C329.896 790.306 328.514 790.567 327.123 790.538C324.401 790.485 321.806 789.38 319.882 787.456C317.957 785.531 316.853 782.936 316.8 780.215L316.731 780.112Z" fill="white"/>
</g>
</g>
<defs>
<linearGradient id="paint0_linear_319_37" x1="82.9935" y1="924.009" x2="941.006" y2="99.9914" gradientUnits="userSpaceOnUse">
<stop offset="0.38" stop-color="#582DB4"/>
<stop offset="1" stop-color="#6645CE"/>
</linearGradient>
<linearGradient id="paint1_linear_319_37" x1="633.634" y1="615.845" x2="390.366" y2="372.611" gradientUnits="userSpaceOnUse">
<stop stop-color="#00182A"/>
<stop offset="1" stop-color="#1C75BC"/>
</linearGradient>
<linearGradient id="paint2_linear_319_37" x1="512" y1="542.28" x2="512" y2="299.699" gradientUnits="userSpaceOnUse">
<stop stop-color="#00182A"/>
<stop offset="1" stop-color="#1C75BC"/>
</linearGradient>
<clipPath id="clip0_319_37">
<rect width="1024" height="1024" fill="white"/>
</clipPath>
<clipPath id="clip1_319_37">
<rect width="1024" height="1024" fill="white"/>
</clipPath>
</defs>
</svg>
